HIERARCHY
ROOT hip
{
	OFFSET 0.000000 0.000000 0.000000 
	CHANNELS 6 Xposition Yposition Zposition Zrotation Xrotation Yrotation
	JOINT abdomen
	{
		OFFSET 0.000000 3.402643 0.000000 
		CHANNELS 3 Zrotation Xrotation Yrotation
		JOINT chest
		{
			OFFSET 0.000000 8.438565 -0.680529 
			CHANNELS 3 Zrotation Xrotation Yrotation
			JOINT neck
			{
				OFFSET 0.000000 10.207942 -0.272212 
				CHANNELS 3 Zrotation Xrotation Yrotation
				JOINT head
				{
					OFFSET 0.000000 3.130431 0.000000 
					CHANNELS 3 Zrotation Xrotation Yrotation
					End Site
					{
						OFFSET 0.000000 3.130435 0.000000 
					}
				}
			}
			JOINT lCollar
			{
				OFFSET 3.470700 6.669187 -0.816635 
				CHANNELS 3 Zrotation Xrotation Yrotation
				JOINT lShldr
				{
					OFFSET 3.198488 0.000000 0.000000 
					CHANNELS 3 Zrotation Xrotation Yrotation
					JOINT lForeArm
					{
						OFFSET 10.139888 0.000000 0.000000 
						CHANNELS 3 Zrotation Xrotation Yrotation
						JOINT lHand
						{
							OFFSET 8.370511 0.000000 0.000000 
							CHANNELS 3 Zrotation Xrotation Yrotation
							End Site
							{
								OFFSET 4.083176 0.000000 0.000000 
							}
						}
					}
				}
			}
			JOINT rCollar
			{
				OFFSET -3.470700 6.669187 -0.816635 
				CHANNELS 3 Zrotation Xrotation Yrotation
				JOINT rShldr
				{
					OFFSET -3.198488 0.000000 0.000000 
					CHANNELS 3 Zrotation Xrotation Yrotation
					JOINT rForeArm
					{
						OFFSET -10.139888 0.000000 0.000000 
						CHANNELS 3 Zrotation Xrotation Yrotation
						JOINT rHand
						{
							OFFSET -8.370511 0.000000 0.000000 
							CHANNELS 3 Zrotation Xrotation Yrotation
							End Site
							{
								OFFSET -4.083176 0.000000 0.000000 
							}
						}
					}
				}
			}
		}
	}
	JOINT lThigh
	{
		OFFSET 5.308129 -1.633274 1.361059 
		CHANNELS 3 Zrotation Xrotation Yrotation
		JOINT lShin
		{
			OFFSET -2.041588 -20.007561 0.000000 
			CHANNELS 3 Zrotation Xrotation Yrotation
			JOINT lFoot
			{
				OFFSET 0.000000 -19.190928 -1.224953 
				CHANNELS 3 Zrotation Xrotation Yrotation
				End Site
				{
					OFFSET 0.000000 -2.449906 4.627600 
				}
			}
		}
	}
	JOINT rThigh
	{
		OFFSET -5.308129 -1.633274 1.361059 
		CHANNELS 3 Zrotation Xrotation Yrotation
		JOINT rShin
		{
			OFFSET 2.041588 -20.007561 0.000000 
			CHANNELS 3 Zrotation Xrotation Yrotation
			JOINT rFoot
			{
				OFFSET 0.000000 -19.190928 -1.224953 
				CHANNELS 3 Zrotation Xrotation Yrotation
				End Site
				{
					OFFSET 0.000000 -2.449906 4.627600 
				}
			}
		}
	}
}
MOTION
Frames: 6
Frame Time: 0.033333
0.000000 48.013634 0.291666 0.625536 -2.372920 2.047384 -0.000000 -0.000002 -0.000000 -0.000000 -0.000003 -0.000000 -0.000000 -0.000007 -3.007812 1.367964 7.117132 2.730871 -0.728596 1.777719 14.694583 -17.200499 15.573048 -45.384514 7.825278 0.179905 -19.385130 5.712081 -0.045016 -3.387444 6.031588 -3.210771 -11.290734 26.466007 13.233474 31.473730 -7.876667 -8.085548 27.197138 -6.835073 3.217721 16.596802 0.806054 -23.058416 -0.106063 1.352361 45.118752 -5.398294 -1.145536 23.563314 13.418803 -0.088390 -6.253705 -2.619014 -2.708078 35.415234 2.149721 0.537279 18.167578 2.301441 
0.000000 48.013634 0.291666 0.625536 -2.372920 2.047384 -0.000000 -0.000002 -0.000000 -0.000000 -0.000003 -0.000000 -0.000000 -0.000007 -3.007812 1.367964 7.117132 2.730871 -0.728596 1.777719 14.694583 -16.728939 15.029932 -45.265678 6.923929 0.585792 -20.298986 5.392298 -0.029786 -3.407601 6.031588 -3.210771 -11.290734 25.776051 12.825686 31.476656 -7.622633 -7.918249 28.178022 -6.835073 3.217721 16.596802 1.445203 -23.254597 0.195694 0.757146 46.169121 -5.088408 -1.248330 23.543633 13.574979 -0.588743 -5.758651 -2.826720 -2.958463 35.050198 2.325361 0.467851 18.177523 2.003879 
0.000000 48.013634 0.291666 0.625536 -2.372920 2.047384 -0.000000 -0.000002 -0.000000 -0.000000 -0.000003 -0.000000 -0.000000 -0.000007 -3.007812 1.367964 7.117132 2.730871 -0.728596 1.777719 14.694583 -16.532324 14.744353 -45.585445 5.982601 1.044940 -21.272575 5.027200 -0.011375 -3.438335 6.031588 -3.210771 -11.290734 25.743877 12.795452 31.512884 -7.371420 -7.730869 29.207129 -6.835073 3.217721 16.596802 1.925284 -23.445038 0.359914 0.032892 46.241066 -4.567613 -1.308642 23.707932 13.556877 -1.195859 -5.347439 -2.872692 -2.945329 34.679996 2.266160 0.423390 18.179949 1.909761 
0.000000 48.013634 0.291666 0.625536 -2.372920 2.047384 -0.000000 -0.000002 -0.000000 -0.000000 -0.000003 -0.000000 -0.000000 -0.000007 -3.007812 1.367964 7.117132 2.730871 -0.728596 1.777719 14.694583 -16.518505 14.663239 -46.127037 5.256760 1.424360 -22.053484 4.633463 0.010292 -3.467457 6.031588 -3.210771 -11.290734 26.124565 13.034166 31.566702 -7.143498 -7.562284 30.091057 -6.835073 3.217721 16.596802 2.223485 -23.444225 0.507160 -0.540630 45.819141 -4.317159 -1.289438 23.651987 13.676663 -1.460253 -5.025721 -2.934041 -2.907218 34.270214 2.254541 0.487897 18.109474 1.989537 
0.000000 48.013634 0.291666 0.625536 -2.372920 2.047384 -0.000000 -0.000002 -0.000000 -0.000000 -0.000003 -0.000000 -0.000000 -0.000007 -3.007812 1.367964 7.117132 2.730871 -0.728596 1.777719 14.694583 -16.544718 14.636003 -46.579044 4.983783 1.561711 -22.385986 4.239480 0.033373 -3.497811 6.031588 -3.210771 -11.290734 26.521450 13.271200 31.570360 -6.967302 -7.435729 30.605745 -6.835073 3.217721 16.596802 2.338366 -23.298134 0.504674 -1.006126 44.616005 -3.995366 -1.220273 23.854139 13.710141 -1.477253 -4.834474 -2.939409 -2.679004 33.786510 2.167468 0.401840 18.131800 1.909008 
0.000000 48.013634 0.291666 0.625536 -2.372920 2.047384 -0.000000 -0.000002 -0.000000 -0.000000 -0.000003 -0.000000 -0.000000 -0.000007 -3.007812 1.367964 7.117132 2.730871 -0.728596 1.777719 14.694583 -16.442202 14.536191 -46.603794 5.394425 1.302164 -22.015669 3.909392 0.055331 -3.529925 6.031588 -3.210771 -11.290734 26.513407 13.266790 31.478527 -6.869409 -7.376522 30.527151 -6.835073 3.217721 16.596802 2.271777 -23.107924 0.478873 -1.098383 43.686756 -3.935861 -1.176767 23.839600 13.575990 -1.341152 -4.789196 -2.882161 -2.241268 33.220009 1.943107 0.443930 18.131147 1.899139 
